<?xml version="1.0" standalone="no"?>
<!DOCTYPE svg PUBLIC "-//W3C//DTD SVG 20010904//EN"
 "http://www.w3.org/TR/2001/REC-SVG-20010904/DTD/svg10.dtd">
<svg version="1.0" xmlns="http://www.w3.org/2000/svg"
 width="1563.000000pt" height="1563.000000pt" viewBox="0 0 1563.000000 1563.000000"
 preserveAspectRatio="xMidYMid meet">

<g transform="translate(0.000000,1563.000000) scale(0.100000,-0.100000)"
fill="#000000" stroke="none">
<path d="M5694 13285 c-264 -57 -458 -253 -510 -515 -13 -66 -16 -114 -11
-217 l6 -132 -35 -53 c-34 -50 -35 -55 -29 -113 9 -83 40 -206 64 -252 23 -46
76 -101 109 -114 41 -16 88 -10 148 21 43 21 60 26 66 17 19 -31 6 -61 -61
-135 -38 -42 -80 -90 -94 -106 -20 -25 -34 -31 -88 -37 -35 -4 -165 -21 -289
-39 -124 -17 -324 -42 -446 -55 -121 -14 -245 -32 -275 -41 -132 -39 -241
-123 -286 -220 -39 -86 -59 -209 -103 -629 -22 -214 -49 -457 -60 -540 -61
-468 -65 -520 -65 -830 0 -238 4 -324 18 -415 38 -249 79 -364 157 -440 l46
-45 62 -370 c34 -203 127 -757 207 -1230 79 -473 147 -877 151 -898 l6 -38
-64 3 -63 3 0 135 0 135 -75 7 c-41 4 -103 4 -138 1 l-62 -5 2 -472 c3 -398 5
-471 17 -468 8 2 65 -3 128 -10 99 -10 116 -10 124 2 5 8 9 126 9 263 l0 247
23 0 c55 -2 111 -19 127 -40 10 -13 22 -20 29 -16 11 7 1093 -30 1179 -40 41
-5 42 -6 42 -42 1 -198 184 -476 395 -599 35 -21 64 -40 64 -43 0 -3 -25 -21
-56 -40 -113 -72 -220 -216 -238 -320 -9 -54 10 -114 46 -144 l31 -26 221 0
c514 0 699 52 791 220 38 70 45 143 18 203 -13 28 -17 49 -11 53 5 3 28 28 49
56 42 52 88 182 109 303 23 129 60 504 81 800 11 171 24 325 28 343 6 29 15
11 80 -175 41 -114 105 -273 144 -353 l70 -145 -1 -124 c-2 -153 8 -191 97
-366 57 -114 75 -140 146 -210 124 -124 217 -157 340 -121 44 13 70 30 114 71
35 34 65 55 79 55 12 0 60 -16 107 -35 95 -39 238 -78 376 -102 131 -23 441
-23 610 1 258 35 535 113 704 198 189 95 402 274 519 436 107 148 193 344 242
552 10 41 21 78 24 82 4 4 30 -1 59 -12 29 -11 65 -20 80 -20 15 0 33 -4 41
-9 8 -5 27 -3 47 5 18 8 50 14 71 14 169 1 427 138 562 298 64 78 135 200 162
283 21 65 24 91 23 219 -1 183 -24 277 -118 480 -36 78 -66 147 -66 154 0 7
11 23 24 35 33 31 76 130 88 204 8 48 7 82 -5 147 -30 178 -109 319 -288 519
-56 63 -146 173 -199 245 -146 197 -262 297 -457 395 -222 111 -622 238 -868
276 -115 18 -454 21 -629 5 -113 -10 -126 -8 -126 15 0 37 -54 147 -86 175
l-35 30 15 57 c24 100 27 141 12 212 -28 136 -92 236 -512 801 -72 96 -205
281 -296 410 -91 129 -198 276 -237 325 -298 374 -649 629 -1011 731 -82 23
-116 27 -245 28 l-150 2 -3 25 c-3 29 -54 346 -78 484 -10 55 -19 120 -20 145
-1 25 -2 53 -3 63 -1 10 -12 29 -26 43 -14 14 -34 42 -44 63 -70 136 -266 263
-473 305 -93 19 -269 20 -354 1z m347 -19 c144 -31 290 -106 380 -196 63 -62
99 -124 99 -169 0 -40 -69 -130 -203 -269 -84 -85 -119 -115 -149 -122 -88
-24 -694 -121 -746 -119 -25 0 -24 1 10 14 90 33 388 81 579 94 70 4 132 12
139 16 16 10 -30 58 -88 92 -145 85 -318 83 -546 -9 -101 -40 -148 -84 -172
-161 -18 -59 -22 -62 -84 -69 -22 -3 -27 3 -44 52 -30 87 -29 300 2 400 27 87
78 185 129 247 44 53 162 134 240 163 129 49 322 64 454 36z m543 -554 c3 -20
24 -148 46 -283 52 -316 51 -320 -97 -563 -32 -52 -50 -93 -45 -98 5 -5 56 33
123 91 178 156 248 191 423 213 73 9 106 9 146 0 127 -29 380 -181 573 -342
174 -146 304 -300 582 -695 82 -115 207 -289 279 -385 406 -546 477 -657 506
-779 15 -63 9 -164 -14 -236 -14 -42 -25 -56 -69 -86 -207 -141 -425 -113
-629 79 -39 37 -160 173 -268 302 -251 298 -299 350 -560 601 -308 295 -411
419 -464 560 -44 117 -62 52 -21 -78 70 -224 231 -536 413 -798 30 -44 68 -98
83 -120 45 -66 63 -145 56 -251 -6 -111 -24 -152 -83 -196 -65 -49 -59 -61 29
-53 39 3 77 2 83 -2 31 -22 109 -211 309 -746 114 -307 195 -548 195 -582 0
-8 -59 -81 -132 -162 -250 -281 -326 -398 -512 -790 -186 -389 -218 -496 -218
-708 0 -175 15 -237 203 -847 34 -113 39 -117 143 -127 39 -3 71 -10 71 -16 0
-17 -125 -18 -171 0 -43 16 -64 43 -43 56 8 5 4 17 -14 41 -65 85 -132 244
-279 657 -108 307 -186 502 -356 896 -71 165 -153 363 -182 440 -65 172 -140
426 -140 473 0 40 -97 399 -181 667 -59 188 -89 245 -126 245 -18 0 -17 -9 12
-74 34 -76 99 -292 140 -461 34 -138 169 -845 199 -1040 37 -243 114 -900 143
-1230 23 -261 26 -1007 4 -1158 -7 -53 -17 -100 -22 -103 -5 -3 -27 0 -50 6
-111 30 -296 6 -450 -59 l-72 -30 -51 25 c-106 53 -214 153 -295 272 -107 159
-120 221 -141 692 -13 289 -44 735 -70 1015 -11 116 -27 300 -35 410 -9 110
-25 286 -35 390 -50 495 -67 836 -51 1060 23 321 91 704 131 740 19 17 22 15
81 -39 167 -155 401 -189 759 -109 129 28 489 143 527 169 56 36 1 31 -122
-12 -190 -66 -222 -73 -343 -82 -297 -20 -611 40 -747 143 -49 38 -121 137
-161 220 -46 96 -69 195 -94 397 -12 95 -34 279 -50 408 -16 129 -34 287 -40
350 -17 180 -24 186 -67 57 -26 -79 -27 -89 -27 -297 0 -269 35 -538 116 -885
45 -198 46 -236 4 -485 -37 -224 -56 -390 -56 -500 0 -36 -3 -75 -6 -87 -8
-31 -45 -30 -81 1 -24 21 -28 31 -31 97 -3 77 0 79 34 22 7 -10 14 -15 18 -12
3 3 -16 53 -44 111 -124 263 -243 702 -287 1058 -24 201 -24 571 0 730 44 282
131 510 281 735 70 104 228 294 252 302 5 2 18 -14 28 -34 40 -84 191 -244
216 -228 6 4 0 25 -15 55 -14 27 -25 59 -25 70 0 17 4 19 28 13 15 -5 65 -8
112 -8 78 0 90 3 148 35 108 58 152 140 152 286 0 75 3 89 24 117 32 43 53 96
61 154 11 76 12 79 107 186 97 108 208 252 208 268 0 25 19 -5 24 -39z m-600
-92 c29 -12 73 -35 97 -52 l44 -32 -150 -13 c-189 -16 -324 -37 -476 -74 -66
-16 -123 -29 -126 -29 -10 0 8 53 27 80 25 35 153 94 271 125 111 30 224 28
313 -5z m175 -323 c-12 -64 -30 -99 -48 -93 -9 3 -41 14 -71 25 -31 11 -100
27 -155 37 -209 35 -333 -4 -405 -129 -16 -29 -30 -61 -30 -72 l-1 -20 -15 20
c-22 27 -70 133 -78 170 l-7 30 193 28 c187 28 507 80 578 95 33 8 35 6 41
-20 4 -15 3 -47 -2 -71z m-820 -92 c10 -27 28 -70 39 -94 12 -25 20 -46 18
-48 -6 -6 -82 99 -104 143 -22 44 -20 57 11 52 12 -2 25 -20 36 -53z m-59 -22
c19 -37 59 -93 91 -124 58 -61 58 -69 -1 -69 -35 0 -91 46 -114 94 -32 68 -43
166 -19 166 4 0 24 -30 43 -67z m655 47 c93 -20 165 -47 165 -61 0 -40 -154
-35 -252 8 -48 20 -80 27 -133 27 -81 1 -127 -17 -187 -74 -45 -44 -49 -38 -9
17 32 45 71 75 116 91 50 17 202 13 300 -8z m-142 -157 c73 -33 91 -37 162
-37 61 0 92 5 129 22 27 12 51 22 54 22 14 0 -7 -160 -27 -207 -27 -61 -49
-83 -120 -119 -115 -57 -236 -41 -345 48 -55 45 -126 131 -126 154 0 26 76
134 105 149 38 20 67 14 168 -32z m-673 -543 c-205 -269 -329 -566 -387 -925
-7 -49 -17 -169 -20 -265 -10 -324 46 -652 170 -984 l40 -108 -26 -52 c-79
-163 -297 -323 -503 -372 -149 -35 -383 0 -456 68 -47 44 -57 21 -21 -44 55
-98 134 -131 351 -148 201 -16 390 7 754 91 54 12 101 20 104 16 3 -3 3 -18 0
-34 -5 -22 -17 -32 -54 -47 -145 -59 -540 -235 -661 -295 -78 -39 -158 -73
-178 -77 -75 -14 -253 47 -313 108 -89 88 -143 306 -162 648 -12 229 -2 451
37 775 50 412 87 735 110 965 37 370 59 446 158 537 95 88 178 111 542 153
149 17 326 39 395 49 201 30 191 35 120 -59z m2984 -1590 c284 -341 363 -414
511 -471 76 -30 82 -38 84 -118 1 -25 8 -71 18 -104 16 -57 16 -60 -2 -70 -43
-24 -106 -93 -129 -141 -32 -67 -46 -148 -46 -265 0 -117 -15 -222 -36 -264
-19 -36 -126 -186 -134 -187 -3 0 -47 127 -99 283 -51 155 -111 329 -134 387
-102 265 -240 514 -349 626 -37 39 -68 76 -68 83 0 7 19 67 42 134 41 119 42
125 46 282 l5 160 60 -65 c33 -36 137 -157 231 -270z m1044 -433 c53 -57 94
-234 62 -272 -26 -31 -45 -17 -85 67 -22 45 -46 84 -52 86 -10 3 -9 -4 1 -29
l14 -33 -82 -24 c-44 -13 -120 -40 -167 -61 l-87 -38 -11 37 c-23 77 -18 85
56 105 91 25 186 74 258 134 33 27 63 50 66 50 3 1 15 -9 27 -22z m808 -186
c210 -53 437 -170 639 -330 72 -57 101 -69 89 -36 -3 7 -12 16 -19 19 -20 7
-218 240 -207 244 13 4 320 -125 412 -174 l75 -39 12 -80 c6 -44 18 -97 27
-117 10 -22 16 -65 16 -107 0 -47 6 -82 20 -112 24 -53 25 -109 5 -150 -9 -17
-46 -49 -84 -74 -83 -52 -134 -116 -156 -193 -40 -137 -182 -350 -278 -416
-72 -50 -151 -73 -296 -86 -165 -15 -215 -24 -360 -64 -174 -48 -242 -58 -332
-46 -187 24 -305 95 -614 372 -89 78 -182 160 -208 181 -50 41 -87 101 -107
177 -8 31 -12 127 -11 299 1 225 3 258 20 296 27 60 236 281 309 327 l60 37
-10 -42 c-5 -23 -7 -69 -5 -102 7 -79 69 -264 105 -318 41 -59 119 -130 185
-167 31 -17 65 -44 76 -58 16 -22 22 -25 32 -14 11 10 10 19 0 50 -25 68 -94
176 -152 238 -62 64 -89 113 -114 209 -14 56 -21 175 -10 175 3 0 19 -9 34
-21 35 -26 95 -28 122 -3 11 9 22 35 26 57 6 38 7 39 38 34 18 -3 50 -17 72
-31 21 -14 63 -34 93 -45 30 -10 84 -32 120 -49 63 -29 187 -51 210 -37 21 13
-12 46 -83 81 -74 38 -217 130 -217 141 0 3 87 3 193 0 146 -4 211 -10 273
-26z m-4599 -582 c15 -7 40 -11 55 -10 l27 2 3 -208 c3 -215 -1 -243 -37 -230
-26 11 -47 76 -53 165 -3 54 -9 81 -16 79 -18 -6 -18 -68 -1 -148 23 -105 23
-104 -5 -104 -36 0 -63 58 -93 202 -30 138 -27 160 25 223 35 42 50 47 95 29z
m-136 -304 c9 -44 16 -81 15 -81 0 -1 -57 -9 -126 -18 -69 -9 -288 -40 -488
-68 -199 -28 -365 -48 -368 -45 -4 3 -9 26 -11 50 -5 42 -4 44 27 57 39 16
886 189 914 187 16 -2 23 -17 37 -82z m3306 -37 c-3 -8 -6 -5 -6 6 -1 11 2 17
5 13 3 -3 4 -12 1 -19z m-4406 -58 c45 -10 84 -22 87 -25 3 -3 8 -32 10 -65 4
-51 7 -60 24 -60 10 0 94 11 186 25 92 13 268 38 392 55 124 17 243 33 266 36
l41 6 7 -79 c4 -43 21 -181 37 -308 60 -470 77 -637 134 -1300 3 -33 10 -141
16 -239 10 -168 9 -180 -8 -197 -10 -9 -118 -69 -241 -133 -216 -112 -343
-182 -542 -300 -52 -30 -96 -52 -97 -48 -1 4 -41 237 -88 517 -47 281 -119
708 -160 950 -41 242 -101 602 -134 800 -33 198 -63 372 -66 388 -5 27 -5 27
25 12 16 -8 66 -24 111 -35z m4416 -12 c-3 -7 -5 -2 -5 12 0 14 2 19 5 13 2
-7 2 -19 0 -25z m-146 -114 l-6 -91 -89 -133 c-156 -234 -255 -473 -264 -637
-3 -65 -1 -93 6 -93 7 0 14 12 18 28 41 187 82 289 159 397 43 60 170 188 221
221 25 17 27 17 40 -1 19 -26 17 -62 -6 -131 -38 -108 -41 -147 -45 -501 -4
-327 -3 -358 16 -430 24 -94 64 -184 127 -280 73 -112 79 -101 28 50 -69 205
-85 412 -46 612 12 61 26 157 30 215 8 103 18 151 38 186 12 21 15 14 92 -184
73 -188 115 -248 207 -296 47 -24 108 -34 298 -51 94 -8 240 -27 325 -41 140
-24 162 -25 237 -15 97 14 181 41 244 80 l46 28 33 -111 c58 -193 54 -288 -24
-516 -74 -214 -106 -393 -106 -583 0 -215 -55 -319 -270 -514 -199 -180 -300
-233 -443 -233 -101 0 -156 18 -352 115 -218 109 -312 137 -460 137 -60 1
-148 -5 -195 -11 -121 -18 -294 -16 -355 3 -31 10 -51 12 -55 5 -4 -5 -13 3
-20 18 -23 49 -99 274 -130 385 -16 59 -52 169 -81 245 -78 208 -90 259 -96
419 -9 239 16 335 182 669 199 404 298 573 464 795 47 64 119 166 160 228 41
61 76 111 76 109 1 -1 -1 -43 -4 -93z m156 64 c-3 -8 -6 -5 -6 6 -1 11 2 17 5
13 3 -3 4 -12 1 -19z m10 -50 c-3 -8 -6 -5 -6 6 -1 11 2 17 5 13 3 -3 4 -12 1
-19z m10 -50 c-3 -8 -6 -5 -6 6 -1 11 2 17 5 13 3 -3 4 -12 1 -19z m22 -68 c0
-9 -4 -8 -9 5 -5 11 -9 27 -9 35 0 9 4 8 9 -5 5 -11 9 -27 9 -35z m101 -230
c6 -11 8 -20 6 -20 -3 0 -10 9 -16 20 -6 11 -8 20 -6 20 3 0 10 -9 16 -20z
m263 -297 c40 -32 84 -66 97 -76 25 -18 25 -18 -5 -1 -75 43 -216 169 -278
249 -17 22 2 5 42 -37 39 -42 104 -103 144 -135z m2682 -108 c-39 -33 -135
-91 -135 -81 0 2 24 18 53 35 28 17 66 42 82 55 17 14 32 25 35 25 3 0 -13
-15 -35 -34z m-2515 -11 c0 -2 -9 0 -20 6 -11 6 -20 13 -20 16 0 2 9 0 20 -6
11 -6 20 -13 20 -16z m100 -44 c8 -5 11 -10 5 -10 -5 0 -17 5 -25 10 -8 5 -10
10 -5 10 6 0 17 -5 25 -10z m1058 -57 c-21 -2 -57 -2 -80 0 -24 2 -7 4 37 4
44 0 63 -2 43 -4z m1162 -3 c-8 -5 -19 -10 -25 -10 -5 0 -3 5 5 10 8 5 20 10
25 10 6 0 3 -5 -5 -10z m-1362 -7 c-10 -2 -28 -2 -40 0 -13 2 -5 4 17 4 22 1
32 -1 23 -4z m345 0 c-7 -2 -21 -2 -30 0 -10 3 -4 5 12 5 17 0 24 -2 18 -5z
m-946 -9 c-3 -3 -12 -4 -19 -1 -8 3 -5 6 6 6 11 1 17 -2 13 -5z m501 -1 c-10
-2 -28 -2 -40 0 -13 2 -5 4 17 4 22 1 32 -1 23 -4z m505 0 c-7 -2 -19 -2 -25
0 -7 3 -2 5 12 5 14 0 19 -2 13 -5z m-925 -10 c-10 -2 -28 -2 -40 0 -13 2 -5
4 17 4 22 1 32 -1 23 -4z m320 0 c-10 -2 -28 -2 -40 0 -13 2 -5 4 17 4 22 1
32 -1 23 -4z m659 1 c-3 -3 -12 -4 -19 -1 -8 3 -5 6 6 6 11 1 17 -2 13 -5z
m-809 -11 c-21 -2 -57 -2 -80 0 -24 2 -7 4 37 4 44 0 63 -2 43 -4z m859 1 c-3
-3 -12 -4 -19 -1 -8 3 -5 6 6 6 11 1 17 -2 13 -5z m50 -10 c-3 -3 -12 -4 -19
-1 -8 3 -5 6 6 6 11 1 17 -2 13 -5z m668 -4 c-11 -5 -29 -8 -40 -8 -16 0 -15
2 5 8 34 11 60 11 35 0z m-536 -16 c2 -2 -8 -4 -22 -4 -19 0 -27 -5 -27 -17
-1 -17 -1 -17 -11 0 -6 10 -20 22 -32 27 -15 6 -4 7 33 3 30 -3 57 -7 59 -9z
m464 -1 c-7 -2 -21 -2 -30 0 -10 3 -4 5 12 5 17 0 24 -2 18 -5z m-355 -10
c-16 -2 -40 -2 -55 0 -16 2 -3 4 27 4 30 0 43 -2 28 -4z m275 0 c-13 -2 -33
-2 -45 0 -13 2 -3 4 22 4 25 0 35 -2 23 -4z m662 -75 c107 -339 48 -606 -186
-836 -105 -104 -254 -193 -369 -220 -62 -15 -160 -26 -160 -18 0 3 13 30 29
59 48 85 71 170 101 378 30 203 50 279 94 352 37 63 112 131 196 178 93 51
186 117 224 158 17 17 33 31 37 31 5 0 20 -37 34 -82z m-1056 -48 c0 -9 -4 -8
-9 5 -5 11 -9 27 -9 35 0 9 4 8 9 -5 5 -11 9 -27 9 -35z m8 -42 c-3 -8 -6 -5
-6 6 -1 11 2 17 5 13 3 -3 4 -12 1 -19z m10 -50 c-3 -8 -6 -5 -6 6 -1 11 2 17
5 13 3 -3 4 -12 1 -19z m10 -70 c-3 -7 -5 -2 -5 12 0 14 2 19 5 13 2 -7 2 -19
0 -25z m10 -85 c-3 -10 -5 -4 -5 12 0 17 2 24 5 18 2 -7 2 -21 0 -30z m10
-100 c-3 -10 -5 -2 -5 17 0 19 2 27 5 18 2 -10 2 -26 0 -35z m10 -90 c-3 -10
-5 -2 -5 17 0 19 2 27 5 18 2 -10 2 -26 0 -35z m10 -75 c-3 -7 -5 -2 -5 12 0
14 2 19 5 13 2 -7 2 -19 0 -25z m10 -75 c-3 -10 -5 -4 -5 12 0 17 2 24 5 18 2
-7 2 -21 0 -30z m10 -95 c-2 -13 -4 -5 -4 17 -1 22 1 32 4 23 2 -10 2 -28 0
-40z m10 -125 c-2 -16 -4 -5 -4 22 0 28 2 40 4 28 2 -13 2 -35 0 -50z m0 -170
c-3 -10 -5 -2 -5 17 0 19 2 27 5 18 2 -10 2 -26 0 -35z m-2766 -1060 c13 -16
12 -17 -3 -4 -10 7 -18 15 -18 17 0 8 8 3 21 -13z m50 -40 c13 -16 12 -17 -3
-4 -10 7 -18 15 -18 17 0 8 8 3 21 -13z m40 -30 c13 -16 12 -17 -3 -4 -10 7
-18 15 -18 17 0 8 8 3 21 -13z m-1601 -159 c109 -32 205 -95 236 -155 9 -18
14 -58 14 -113 l0 -86 -40 -29 c-89 -65 -257 -89 -627 -93 -256 -3 -263 -2
-284 18 -29 29 -38 80 -24 139 14 62 33 98 84 163 65 82 134 127 221 146 174
39 313 42 420 10z"/>
<path d="M7160 9619 c0 -14 30 -38 49 -39 11 0 11 3 1 16 -20 23 -50 37 -50
23z"/>
<path d="M7095 9585 c17 -8 39 -14 50 -14 20 0 20 0 1 14 -11 8 -34 15 -50 14
l-31 -1 30 -13z"/>
<path d="M5917 12333 c-15 -15 -7 -43 13 -43 15 0 20 7 20 25 0 24 -18 34 -33
18z"/>
<path d="M5422 12213 c4 -36 33 -39 33 -3 0 16 -6 26 -18 28 -15 3 -18 -2 -15
-25z"/>
<path d="M4017 8648 c-8 -28 12 -118 25 -118 7 0 8 17 4 46 -3 26 -6 57 -6 70
0 30 -16 31 -23 2z"/>
<path d="M4080 8613 c0 -51 10 -85 24 -80 10 3 10 63 0 100 -9 31 -24 18 -24
-20z"/>
</g>
</svg>
